<svg width="81" height="91" viewBox="0 0 81 91" fill="none" xmlns="http://www.w3.org/2000/svg">
<path d="M8.448 42.488C11.776 43.0427 14.8267 43.32 17.6 43.32C20.3733 43.32 22.144 43.2987 22.912 43.256C22.8267 40.0133 22.784 36.8987 22.784 33.912C22.784 30.9253 22.784 28.8987 22.784 27.832C22.784 26.7653 22.8267 26.104 22.912 25.848C22.9973 25.5493 23.2747 25.272 23.744 25.016C24.2133 24.76 24.896 24.632 25.792 24.632C27.072 24.632 27.712 25.4 27.712 26.936V49.592C27.712 54.2853 27.6053 59.448 27.392 65.08C27.3493 66.3173 26.304 66.936 24.256 66.936C23.232 66.936 22.72 66.3173 22.72 65.08L22.976 48.12C21.6107 48.2053 19.7333 48.248 17.344 48.248C14.9973 48.248 12.032 47.992 8.448 47.48C8.448 53.112 8.704 59 9.216 65.144C9.25867 65.8267 8.96 66.36 8.32 66.744C7.68 67.0853 6.86933 67.256 5.888 67.256C4.94933 67.256 4.43733 66.7653 4.352 65.784C3.79733 59.7253 3.52 53.752 3.52 47.864L3.904 27.896C3.904 27.0427 4.224 26.424 4.864 26.04C5.504 25.6133 6.18667 25.4 6.912 25.4C8.10667 25.4 8.704 25.976 8.704 27.128L8.448 42.488ZM48.8175 65.784C47.0682 60.6213 45.2548 55.9067 43.3775 51.64C41.5002 47.3307 39.0895 41.9333 36.1455 35.448C35.1215 33.1867 34.4815 31.8 34.2255 31.288C33.9695 30.7333 33.8415 30.136 33.8415 29.496C33.8415 28.8133 34.1615 28.152 34.8015 27.512C35.4842 26.872 36.2308 26.552 37.0415 26.552C37.8522 26.552 38.5348 26.9573 39.0895 27.768L42.1615 34.808C46.4708 44.7493 49.5428 51.9813 51.3775 56.504L52.5295 52.024C53.4682 48.0987 54.4495 44.216 55.4735 40.376C58.3748 29.88 61.2335 24.632 64.0495 24.632C64.5615 24.632 64.9882 24.7813 65.3295 25.08C65.7135 25.3787 65.9055 25.784 65.9055 26.296C65.9055 26.808 65.6282 27.5547 65.0735 28.536C64.5615 29.5173 63.9002 31.288 63.0895 33.848C62.2788 36.408 61.7668 37.9227 61.5535 38.392C61.3828 38.8187 60.3588 42.4027 58.4815 49.144C56.6468 55.8853 55.0682 61.176 53.7455 65.016C53.5322 65.6987 53.1268 66.2747 52.5295 66.744C51.9322 67.1707 51.2495 67.384 50.4815 67.384C49.7562 67.384 49.2015 66.8507 48.8175 65.784Z" fill="#45474A"/>
<path d="M17.36 75.736L17.344 78.104C17.344 78.7013 17.152 79 16.768 79C16.5867 79 16.448 78.9627 16.352 78.888C16.2667 78.8133 16.2293 78.696 16.24 78.536C16.2827 77.9707 16.304 77.0693 16.304 75.832C16.1227 75.8533 15.84 75.864 15.456 75.864C15.0827 75.864 14.496 75.8213 13.696 75.736V76.072C13.696 76.296 13.7387 77.1067 13.824 78.504C13.8347 78.6747 13.7707 78.8027 13.632 78.888C13.504 78.9627 13.3707 79 13.232 79C13.0933 79 12.9813 78.9627 12.896 78.888C12.8213 78.8027 12.7787 78.7067 12.768 78.6C12.6507 77.4907 12.592 76.6533 12.592 76.088C12.592 75.512 12.5973 75.1227 12.608 74.92L12.672 72.248C12.6827 72.12 12.752 72.0133 12.88 71.928C13.0187 71.832 13.1627 71.784 13.312 71.784C13.5893 71.784 13.728 71.9013 13.728 72.136L13.696 74.648C14.2293 74.7333 14.6933 74.776 15.088 74.776C15.4827 74.776 15.7227 74.776 15.808 74.776H16.304C16.272 74.1893 16.256 73.304 16.256 72.12C16.256 71.9707 16.3253 71.848 16.464 71.752C16.6133 71.656 16.768 71.608 16.928 71.608C17.0987 71.608 17.216 71.6827 17.28 71.832C17.344 71.9813 17.3707 72.1253 17.36 72.264V75.736ZM20.0141 75.4L20.0461 77.496C20.0461 77.7733 20.0408 77.9227 20.0301 77.944L22.7981 77.896C23.1075 77.928 23.2621 78.0613 23.2621 78.296C23.2621 78.744 23.0541 78.968 22.6381 78.968L19.5021 79C19.3101 79 19.1661 78.936 19.0701 78.808C18.9848 78.6693 18.9368 78.5253 18.9261 78.376C18.9155 78.2267 18.9101 78.0613 18.9101 77.88V75.224C18.7715 75.1493 18.7021 75.0373 18.7021 74.888C18.7021 74.7387 18.7608 74.6053 18.8781 74.488C18.8461 73.656 18.8301 72.8987 18.8301 72.216C18.8301 71.8213 19.0701 71.6187 19.5501 71.608C19.6781 71.608 19.8275 71.608 19.9981 71.608L22.7981 71.656H22.8141C23.1555 71.6987 23.3261 71.8587 23.3261 72.136C23.3261 72.3493 23.2621 72.4933 23.1341 72.568C22.8568 72.7173 22.1901 72.792 21.1341 72.792C20.7395 72.792 20.3448 72.776 19.9501 72.744C19.9501 73.704 19.9555 74.2427 19.9661 74.36C20.3821 74.3707 21.1981 74.376 22.4141 74.376C22.7448 74.4187 22.9101 74.568 22.9101 74.824C22.9101 74.952 22.8568 75.0747 22.7501 75.192C22.6435 75.3093 22.5261 75.3787 22.3981 75.4C22.2808 75.4107 22.0195 75.416 21.6141 75.416C21.2195 75.416 20.6861 75.4107 20.0141 75.4ZM29.8683 72.984L28.5723 72.824C26.8443 72.824 25.9803 73.688 25.9803 75.416C25.9803 76.2907 26.2416 76.984 26.7643 77.496C27.0203 77.7627 27.2869 77.896 27.5643 77.896C27.8416 77.896 28.3269 77.7733 29.0203 77.528C29.7136 77.2827 30.0869 77.16 30.1403 77.16C30.4283 77.16 30.5723 77.2933 30.5723 77.56C30.5723 77.784 30.4496 77.976 30.2043 78.136C28.8709 78.7013 27.9056 78.984 27.3083 78.984C26.9456 78.984 26.5883 78.8667 26.2363 78.632C25.8843 78.3973 25.6069 78.0933 25.4043 77.72C24.9883 76.984 24.7803 76.1947 24.7803 75.352C24.7803 74.2213 25.1216 73.3253 25.8043 72.664C26.4869 72.0027 27.3616 71.672 28.4283 71.672C29.0469 71.672 29.6603 71.7733 30.2683 71.976V71.992C30.4603 72.1093 30.5563 72.2427 30.5563 72.392C30.5563 72.5413 30.4763 72.68 30.3163 72.808C30.1669 72.9253 30.0176 72.984 29.8683 72.984ZM35.1994 72.584L35.1674 76.376C35.1674 77.1653 35.178 77.8587 35.1994 78.456C35.21 78.616 35.1407 78.7493 34.9914 78.856C34.8527 78.952 34.7087 79 34.5594 79C34.282 79 34.1434 78.8507 34.1434 78.552C34.1114 77.3893 34.0954 76.2853 34.0954 75.24C34.0954 74.184 34.1274 73.3147 34.1914 72.632C33.5514 72.6853 32.9007 72.712 32.2394 72.712C31.9087 72.712 31.7434 72.5733 31.7434 72.296C31.7434 72.168 31.802 72.04 31.9194 71.912C32.0474 71.784 32.186 71.7147 32.3354 71.704L37.3274 71.544C37.6154 71.608 37.7594 71.7467 37.7594 71.96C37.7594 72.3973 37.258 72.616 36.2554 72.616L35.1994 72.584ZM42.0264 71.688C42.8157 71.688 43.4504 71.992 43.9304 72.6C44.421 73.208 44.6664 74.04 44.6664 75.096C44.6664 76.152 44.3997 77.064 43.8664 77.832C43.333 78.6 42.6557 78.984 41.8344 78.984C40.9384 78.984 40.2077 78.6 39.6424 77.832C39.077 77.064 38.7944 76.1253 38.7944 75.016C38.7944 73.9067 39.0877 73.0747 39.6744 72.52C40.261 71.9653 41.045 71.688 42.0264 71.688ZM43.5144 75.272C43.5144 74.4187 43.3917 73.7947 43.1464 73.4C42.901 72.9947 42.469 72.792 41.8504 72.792C41.2317 72.792 40.7517 72.984 40.4104 73.368C40.069 73.7413 39.8984 74.28 39.8984 74.984C39.8984 75.6773 40.0797 76.3227 40.4424 76.92C40.805 77.5173 41.3064 77.816 41.9464 77.816C42.309 77.816 42.6184 77.6613 42.8744 77.352C43.301 76.8187 43.5144 76.1253 43.5144 75.272ZM47.2775 78.408C47.2775 78.568 47.2028 78.7067 47.0535 78.824C46.9042 78.9413 46.7388 79 46.5575 79C46.3228 79 46.2055 78.8933 46.2055 78.68C46.1628 78.1787 46.1415 76.1893 46.1415 72.712C46.1415 72.3707 46.3442 72.104 46.7495 71.912C47.1655 71.72 47.7148 71.624 48.3975 71.624C49.0908 71.624 49.6935 71.7947 50.2055 72.136C50.7282 72.4773 50.9895 72.888 50.9895 73.368C50.9895 73.6027 50.8882 73.864 50.6855 74.152C50.4828 74.44 50.2642 74.6693 50.0295 74.84C49.8055 75 49.4802 75.1973 49.0535 75.432C48.6268 75.6667 48.3655 75.7947 48.2695 75.816C48.9415 76.2427 49.5388 76.7067 50.0615 77.208C50.5842 77.7093 50.8455 78.104 50.8455 78.392C50.8455 78.68 50.7175 78.8667 50.4615 78.952C50.3868 78.9733 50.2908 78.984 50.1735 78.984C50.0562 78.984 49.9068 78.872 49.7255 78.648C49.5442 78.4133 49.2028 78.0827 48.7015 77.656C48.2002 77.2187 47.7042 76.8293 47.2135 76.488C47.2348 77.3413 47.2562 77.976 47.2775 78.392V78.408ZM47.2135 75.064C47.5655 75.064 48.0935 74.8933 48.7975 74.552C49.5015 74.2 49.8695 73.8747 49.9015 73.576C49.9015 73.288 49.7415 73.0747 49.4215 72.936C49.1015 72.7867 48.7655 72.712 48.4135 72.712C48.0082 72.712 47.6135 72.76 47.2295 72.856C47.2188 73.368 47.2135 74.104 47.2135 75.064Z" fill="#45474A"/>
<path d="M9.688 82.12C9.688 82.2267 9.63467 82.392 9.528 82.616L9.24 83.224C9.02667 83.6827 8.776 84.3867 8.488 85.336C8.21067 86.2853 7.864 87.32 7.448 88.44C7.30933 88.8133 7.096 89 6.808 89C6.59467 89 6.36533 88.696 6.12 88.088C5.48 86.52 4.76533 85.0053 3.976 83.544C3.90133 83.4053 3.84267 83.2987 3.8 83.224C3.75733 83.1387 3.71467 83.064 3.672 83C3.62933 82.9253 3.59733 82.872 3.576 82.84C3.56533 82.7973 3.55467 82.7653 3.544 82.744C3.53333 82.712 3.52267 82.68 3.512 82.648C3.512 82.616 3.512 82.5893 3.512 82.568V82.472C3.512 82.344 3.58133 82.216 3.72 82.088C3.86933 81.96 4.01333 81.896 4.152 81.896C4.30133 81.896 4.424 81.9333 4.52 82.008C4.616 82.0827 4.712 82.2053 4.808 82.376C4.904 82.536 4.98933 82.696 5.064 82.856C5.34133 83.464 5.56 83.9333 5.72 84.264C5.88 84.5947 6.024 84.9093 6.152 85.208C6.29067 85.5067 6.41867 85.816 6.536 86.136C6.664 86.456 6.74933 86.664 6.792 86.76C6.86667 86.4933 7.096 85.816 7.48 84.728C7.87467 83.64 8.152 82.9093 8.312 82.536C8.57867 81.9173 8.84533 81.608 9.112 81.608C9.16533 81.608 9.21867 81.6187 9.272 81.64C9.54933 81.736 9.688 81.896 9.688 82.12ZM11.3354 89C11.0367 89 10.8874 88.872 10.8874 88.616L10.9514 82.104C10.9514 81.9547 11.0047 81.8373 11.1114 81.752C11.218 81.656 11.346 81.608 11.4954 81.608C11.6554 81.608 11.7887 81.6453 11.8954 81.72C12.0127 81.7947 12.0767 81.9227 12.0874 82.104C12.098 82.2747 12.1034 82.664 12.1034 83.272C12.1034 86.12 12.082 87.8533 12.0394 88.472C12.0287 88.6107 11.9434 88.7333 11.7834 88.84C11.634 88.9467 11.4847 89 11.3354 89ZM14.7976 89.032L13.4696 89C13.203 89 13.0536 88.92 13.0216 88.76C12.9576 88.312 12.9256 87.6133 12.9256 86.664L13.0376 82.024C13.0376 81.7573 13.2403 81.624 13.6456 81.624C13.8483 81.624 14.0136 81.672 14.1416 81.768C14.2696 81.864 14.3336 81.9973 14.3336 82.168C14.3123 82.616 14.259 83.2347 14.1736 84.024C14.0456 85.0587 13.9816 85.816 13.9816 86.296C13.9816 86.7653 13.9976 87.3307 14.0296 87.992L15.9816 87.88C15.971 87.6133 15.9656 87.208 15.9656 86.664L16.0776 82.024C16.0776 81.7573 16.2803 81.624 16.6856 81.624C16.8883 81.624 17.0536 81.672 17.1816 81.768C17.3096 81.864 17.3736 81.9973 17.3736 82.168C17.3523 82.616 17.299 83.2347 17.2136 84.024C17.0856 85.0587 17.0216 85.816 17.0216 86.296C17.0216 86.7653 17.0376 87.3307 17.0696 87.992L19.4376 87.848C19.7896 87.848 19.9656 88.0293 19.9656 88.392C19.9656 88.6907 19.8536 88.8613 19.6296 88.904C19.1496 88.9787 18.611 89.016 18.0136 89.016L16.5096 89C16.3816 89 16.2803 88.984 16.2056 88.952C15.7683 89.0053 15.299 89.032 14.7976 89.032ZM21.4163 88.568C21.3736 88.8347 21.1816 88.968 20.8403 88.968C20.5096 88.968 20.3443 88.8293 20.3443 88.552C20.3443 87.9227 20.6536 86.6427 21.2723 84.712C21.5496 83.8267 21.8589 83.0907 22.2003 82.504C22.5416 81.9173 22.8723 81.624 23.1923 81.624C23.3629 81.624 23.5123 81.7253 23.6403 81.928C23.7683 82.1307 23.9976 82.5947 24.3283 83.32C24.6696 84.0347 24.9523 84.7973 25.1763 85.608C25.4003 86.408 25.6456 87.3893 25.9123 88.552C25.9123 88.6907 25.8643 88.8027 25.7683 88.888C25.6723 88.9627 25.5549 89 25.4163 89C25.0749 89 24.8616 88.8507 24.7763 88.552L24.2163 86.36C23.2776 86.36 22.5256 86.2853 21.9603 86.136C21.6403 87.3093 21.4589 88.12 21.4163 88.568ZM23.1443 83.096C22.7923 83.6933 22.5043 84.36 22.2803 85.096C22.7496 85.224 23.3043 85.288 23.9443 85.288C23.7416 84.552 23.4749 83.8213 23.1443 83.096ZM33.3911 82.12C33.3911 82.2267 33.3378 82.392 33.2311 82.616L32.9431 83.224C32.7298 83.6827 32.4791 84.3867 32.1911 85.336C31.9138 86.2853 31.5671 87.32 31.1511 88.44C31.0125 88.8133 30.7991 89 30.5111 89C30.2978 89 30.0685 88.696 29.8231 88.088C29.1831 86.52 28.4685 85.0053 27.6791 83.544C27.6045 83.4053 27.5458 83.2987 27.5031 83.224C27.4605 83.1387 27.4178 83.064 27.3751 83C27.3325 82.9253 27.3005 82.872 27.2791 82.84C27.2685 82.7973 27.2578 82.7653 27.2471 82.744C27.2365 82.712 27.2258 82.68 27.2151 82.648C27.2151 82.616 27.2151 82.5893 27.2151 82.568V82.472C27.2151 82.344 27.2845 82.216 27.4231 82.088C27.5725 81.96 27.7165 81.896 27.8551 81.896C28.0045 81.896 28.1271 81.9333 28.2231 82.008C28.3191 82.0827 28.4151 82.2053 28.5111 82.376C28.6071 82.536 28.6925 82.696 28.7671 82.856C29.0445 83.464 29.2631 83.9333 29.4231 84.264C29.5831 84.5947 29.7271 84.9093 29.8551 85.208C29.9938 85.5067 30.1218 85.816 30.2391 86.136C30.3671 86.456 30.4525 86.664 30.4951 86.76C30.5698 86.4933 30.7991 85.816 31.1831 84.728C31.5778 83.64 31.8551 82.9093 32.0151 82.536C32.2818 81.9173 32.5485 81.608 32.8151 81.608C32.8685 81.608 32.9218 81.6187 32.9751 81.64C33.2525 81.736 33.3911 81.896 33.3911 82.12ZM35.9985 85.4L36.0305 87.496C36.0305 87.7733 36.0252 87.9227 36.0145 87.944L38.7825 87.896C39.0918 87.928 39.2465 88.0613 39.2465 88.296C39.2465 88.744 39.0385 88.968 38.6225 88.968L35.4865 89C35.2945 89 35.1505 88.936 35.0545 88.808C34.9692 88.6693 34.9212 88.5253 34.9105 88.376C34.8998 88.2267 34.8945 88.0613 34.8945 87.88V85.224C34.7558 85.1493 34.6865 85.0373 34.6865 84.888C34.6865 84.7387 34.7452 84.6053 34.8625 84.488C34.8305 83.656 34.8145 82.8987 34.8145 82.216C34.8145 81.8213 35.0545 81.6187 35.5345 81.608C35.6625 81.608 35.8118 81.608 35.9825 81.608L38.7825 81.656H38.7985C39.1398 81.6987 39.3105 81.8587 39.3105 82.136C39.3105 82.3493 39.2465 82.4933 39.1185 82.568C38.8412 82.7173 38.1745 82.792 37.1185 82.792C36.7238 82.792 36.3292 82.776 35.9345 82.744C35.9345 83.704 35.9398 84.2427 35.9505 84.36C36.3665 84.3707 37.1825 84.376 38.3985 84.376C38.7292 84.4187 38.8945 84.568 38.8945 84.824C38.8945 84.952 38.8412 85.0747 38.7345 85.192C38.6278 85.3093 38.5105 85.3787 38.3825 85.4C38.2652 85.4107 38.0038 85.416 37.5985 85.416C37.2038 85.416 36.6705 85.4107 35.9985 85.4ZM41.9806 88.408C41.9806 88.568 41.906 88.7067 41.7566 88.824C41.6073 88.9413 41.442 89 41.2606 89C41.026 89 40.9086 88.8933 40.9086 88.68C40.866 88.1787 40.8446 86.1893 40.8446 82.712C40.8446 82.3707 41.0473 82.104 41.4526 81.912C41.8686 81.72 42.418 81.624 43.1006 81.624C43.794 81.624 44.3966 81.7947 44.9086 82.136C45.4313 82.4773 45.6926 82.888 45.6926 83.368C45.6926 83.6027 45.5913 83.864 45.3886 84.152C45.186 84.44 44.9673 84.6693 44.7326 84.84C44.5086 85 44.1833 85.1973 43.7566 85.432C43.33 85.6667 43.0686 85.7947 42.9726 85.816C43.6446 86.2427 44.242 86.7067 44.7646 87.208C45.2873 87.7093 45.5486 88.104 45.5486 88.392C45.5486 88.68 45.4206 88.8667 45.1646 88.952C45.09 88.9733 44.994 88.984 44.8766 88.984C44.7593 88.984 44.61 88.872 44.4286 88.648C44.2473 88.4133 43.906 88.0827 43.4046 87.656C42.9033 87.2187 42.4073 86.8293 41.9166 86.488C41.938 87.3413 41.9593 87.976 41.9806 88.392V88.408ZM41.9166 85.064C42.2686 85.064 42.7966 84.8933 43.5006 84.552C44.2046 84.2 44.5726 83.8747 44.6046 83.576C44.6046 83.288 44.4446 83.0747 44.1246 82.936C43.8046 82.7867 43.4686 82.712 43.1166 82.712C42.7113 82.712 42.3166 82.76 41.9326 82.856C41.922 83.368 41.9166 84.104 41.9166 85.064ZM47.5869 88.584C47.4482 88.4773 47.3789 88.3707 47.3789 88.264C47.3789 88.1467 47.4162 88.04 47.4909 87.944C47.3842 87.1227 47.3095 86.1733 47.2669 85.096C47.2242 84.0187 47.2029 83.4107 47.2029 83.272C47.2029 83.1227 47.2029 82.968 47.2029 82.808C47.2135 82.6373 47.2402 82.4507 47.2829 82.248C47.3575 81.8427 47.6029 81.64 48.0189 81.64C49.1175 81.64 50.1735 82.136 51.1869 83.128C52.2109 84.12 52.7229 85.1973 52.7229 86.36C52.7229 87.2347 52.4509 87.896 51.9069 88.344C51.3629 88.7813 50.6215 89 49.6829 89C49.5015 89 49.2455 88.9787 48.9149 88.936C48.9149 89.1067 48.8455 89.256 48.7069 89.384C48.5682 89.512 48.4082 89.576 48.2269 89.576C47.9495 89.576 47.7842 89.4373 47.7309 89.16L47.5869 88.584ZM48.4029 82.824C48.3922 82.9413 48.3869 83.144 48.3869 83.432C48.3869 83.72 48.4135 84.36 48.4669 85.352C48.5309 86.3333 48.6109 87.1707 48.7069 87.864C48.7922 87.8853 49.1229 87.896 49.6989 87.896C50.9469 87.896 51.5709 87.544 51.5709 86.84C51.5709 85.944 51.2829 85.144 50.7069 84.44C50.1415 83.736 49.3735 83.1973 48.4029 82.824ZM55.5298 85.4L55.5618 87.496C55.5618 87.7733 55.5564 87.9227 55.5458 87.944L58.3138 87.896C58.6231 87.928 58.7778 88.0613 58.7778 88.296C58.7778 88.744 58.5698 88.968 58.1538 88.968L55.0178 89C54.8258 89 54.6818 88.936 54.5858 88.808C54.5004 88.6693 54.4524 88.5253 54.4418 88.376C54.4311 88.2267 54.4258 88.0613 54.4258 87.88V85.224C54.2871 85.1493 54.2178 85.0373 54.2178 84.888C54.2178 84.7387 54.2764 84.6053 54.3938 84.488C54.3618 83.656 54.3458 82.8987 54.3458 82.216C54.3458 81.8213 54.5858 81.6187 55.0658 81.608C55.1938 81.608 55.3431 81.608 55.5138 81.608L58.3138 81.656H58.3298C58.6711 81.6987 58.8418 81.8587 58.8418 82.136C58.8418 82.3493 58.7778 82.4933 58.6498 82.568C58.3724 82.7173 57.7058 82.792 56.6498 82.792C56.2551 82.792 55.8604 82.776 55.4658 82.744C55.4658 83.704 55.4711 84.2427 55.4818 84.36C55.8978 84.3707 56.7138 84.376 57.9298 84.376C58.2604 84.4187 58.4258 84.568 58.4258 84.824C58.4258 84.952 58.3724 85.0747 58.2658 85.192C58.1591 85.3093 58.0418 85.3787 57.9138 85.4C57.7964 85.4107 57.5351 85.416 57.1298 85.416C56.7351 85.416 56.2018 85.4107 55.5298 85.4Z" fill="#45474A"/>
</svg>
